<?xml version="1.0" encoding="UTF-8" standalone="no"?>
<!-- Created with Inkscape (http://www.inkscape.org/) -->

<svg
   xmlns:osb="http://www.openswatchbook.org/uri/2009/osb"
   xmlns:dc="http://purl.org/dc/elements/1.1/"
   xmlns:cc="http://creativecommons.org/ns#"
   xmlns:rdf="http://www.w3.org/1999/02/22-rdf-syntax-ns#"
   xmlns:svg="http://www.w3.org/2000/svg"
   xmlns="http://www.w3.org/2000/svg"
   xmlns:xlink="http://www.w3.org/1999/xlink"
   xmlns:sodipodi="http://sodipodi.sourceforge.net/DTD/sodipodi-0.dtd"
   xmlns:inkscape="http://www.inkscape.org/namespaces/inkscape"
   width="744.09448"
   height="1052.3622"
   id="svg2"
   version="1.1"
   inkscape:version="0.48.1 "
   sodipodi:docname="hoje-peixe-icone.svg"
   inkscape:export-filename="C:\Users\tkrempser\Desktop\hoje-peixe1.png"
   inkscape:export-xdpi="133.89122"
   inkscape:export-ydpi="133.89122">
  <defs
     id="defs4">
    <linearGradient
       id="linearGradient3942">
      <stop
         style="stop-color:#d3d3d3;stop-opacity:0.6936937;"
         offset="0"
         id="stop3944" />
      <stop
         id="stop3976"
         offset="0.25"
         style="stop-color:#555555;stop-opacity:0.21176471;" />
      <stop
         id="stop3950"
         offset="0.5"
         style="stop-color:#c1c1c1;stop-opacity:0.63063061;" />
      <stop
         style="stop-color:#7c7c7c;stop-opacity:0.44144145;"
         offset="0.75"
         id="stop3962" />
      <stop
         style="stop-color:#dadada;stop-opacity:0;"
         offset="1"
         id="stop3946" />
    </linearGradient>
    <linearGradient
       id="linearGradient3910">
      <stop
         style="stop-color:#687b90;stop-opacity:1;"
         offset="0"
         id="stop3912" />
      <stop
         style="stop-color:#cccccc;stop-opacity:0;"
         offset="1"
         id="stop3914" />
    </linearGradient>
    <linearGradient
       id="linearGradient3878">
      <stop
         style="stop-color:#252525;stop-opacity:1;"
         offset="0"
         id="stop3880" />
      <stop
         style="stop-color:#999999;stop-opacity:0;"
         offset="1"
         id="stop3882" />
    </linearGradient>
    <linearGradient
       id="linearGradient3814"
       osb:paint="gradient">
      <stop
         style="stop-color:#a3a3a3;stop-opacity:0.07843138;"
         offset="0"
         id="stop3844" />
      <stop
         id="stop3848"
         offset="0.22151825"
         style="stop-color:#6e6e6e;stop-opacity:0.3137255;" />
      <stop
         id="stop3846"
         offset="0.73468953"
         style="stop-color:#534d4d;stop-opacity:0.22522523;" />
      <stop
         id="stop3818"
         offset="1"
         style="stop-color:#a3a3a3;stop-opacity:0.07843138;" />
    </linearGradient>
    <linearGradient
       id="linearGradient3804">
      <stop
         style="stop-color:#cccccc;stop-opacity:1;"
         offset="0"
         id="stop3806" />
      <stop
         style="stop-color:#cccccc;stop-opacity:0;"
         offset="1"
         id="stop3808" />
    </linearGradient>
    <inkscape:perspective
       sodipodi:type="inkscape:persp3d"
       inkscape:vp_x="0 : 526.18109 : 1"
       inkscape:vp_y="0 : 1000 : 0"
       inkscape:vp_z="744.09448 : 526.18109 : 1"
       inkscape:persp3d-origin="372.04724 : 350.78739 : 1"
       id="perspective4949" />
    <linearGradient
       inkscape:collect="always"
       xlink:href="#linearGradient3814"
       id="linearGradient3812"
       x1="101.18796"
       y1="333.75"
       x2="633.43701"
       y2="333.75"
       gradientUnits="userSpaceOnUse"
       spreadMethod="pad" />
    <linearGradient
       inkscape:collect="always"
       xlink:href="#linearGradient3878"
       id="linearGradient3884"
       x1="511.17911"
       y1="240.37206"
       x2="617.7041"
       y2="350.84778"
       gradientUnits="userSpaceOnUse"
       gradientTransform="matrix(0.96683126,0,0,0.96390833,18.513957,10.55368)" />
    <linearGradient
       inkscape:collect="always"
       xlink:href="#linearGradient3910"
       id="linearGradient3916"
       x1="356.99762"
       y1="113.29902"
       x2="356.99762"
       y2="552.66058"
       gradientUnits="userSpaceOnUse"
       gradientTransform="translate(20,0)" />
    <linearGradient
       inkscape:collect="always"
       xlink:href="#linearGradient3942"
       id="linearGradient3948"
       x1="101.18796"
       y1="333.75"
       x2="633.43701"
       y2="333.75"
       gradientUnits="userSpaceOnUse" />
    <linearGradient
       inkscape:collect="always"
       xlink:href="#linearGradient3942"
       id="linearGradient3958"
       gradientUnits="userSpaceOnUse"
       x1="101.18796"
       y1="333.75"
       x2="633.43701"
       y2="333.75" />
    <linearGradient
       inkscape:collect="always"
       xlink:href="#linearGradient3942"
       id="linearGradient4043"
       gradientUnits="userSpaceOnUse"
       x1="101.18796"
       y1="333.75"
       x2="633.43701"
       y2="333.75" />
    <filter
       id="filter4285"
       inkscape:label="Dripping"
       height="2"
       width="1.3"
       y="-0.5"
       x="-0.15000001"
       inkscape:menu="Protrusions"
       inkscape:menu-tooltip="Random paint streaks downwards"
       color-interpolation-filters="sRGB">
      <feConvolveMatrix
         id="feConvolveMatrix4287"
         order="3 3"
         kernelMatrix="0 -1 0 0 -1 0 0 2 0"
         result="result1"
         divisor="6.03" />
      <feTurbulence
         id="feTurbulence4289"
         numOctaves="1"
         baseFrequency="0.078 0.010"
         result="result0" />
      <feColorMatrix
         id="feColorMatrix4291"
         result="result2"
         values="1 0 0 0 0 0 1 0 0 0 0 0 1 0 0 0 0 0 10 -3.5" />
      <feComposite
         id="feComposite4293"
         in2="result2"
         in="result1"
         operator="in" />
      <feMorphology
         id="feMorphology4295"
         operator="dilate"
         radius="1 30" />
      <feColorMatrix
         id="feColorMatrix4297"
         values="1 0 0 0 0 0 1 0 0 0 0 0 1 0 0 0 0 0 50 0"
         result="result3" />
      <feOffset
         id="feOffset4299"
         dx="0"
         dy="1.4"
         result="result4" />
      <feTurbulence
         id="feTurbulence4301"
         numOctaves="2"
         baseFrequency="0.032 0.025"
         result="result8" />
      <feColorMatrix
         id="feColorMatrix4303"
         values="0 0 0 0 0.52 0 -0.4 0 0 0.45 0 0 1 0 0 0 0 0 1 0"
         result="result91" />
      <feDisplacementMap
         id="feDisplacementMap4305"
         in2="result91"
         in="result4"
         xChannelSelector="R"
         yChannelSelector="G"
         scale="100"
         result="result9" />
      <feComposite
         id="feComposite4307"
         in2="result9"
         in="SourceGraphic" />
    </filter>
    <filter
       id="filter4568"
       inkscape:label="Drop shadow"
       width="1.5"
       height="1.5"
       x="-0.25"
       y="-0.25"
       color-interpolation-filters="sRGB">
      <feGaussianBlur
         id="feGaussianBlur4570"
         in="SourceAlpha"
         stdDeviation="5"
         result="blur" />
      <feColorMatrix
         id="feColorMatrix4572"
         result="bluralpha"
         type="matrix"
         values="1 0 0 0 0 0 1 0 0 0 0 0 1 0 0 0 0 0 0.7 0 " />
      <feOffset
         id="feOffset4574"
         in="bluralpha"
         dx="2"
         dy="2"
         result="offsetBlur" />
      <feMerge
         id="feMerge4576">
        <feMergeNode
           id="feMergeNode4578"
           in="offsetBlur" />
        <feMergeNode
           id="feMergeNode4580"
           in="SourceGraphic" />
      </feMerge>
    </filter>
  </defs>
  <sodipodi:namedview
     id="base"
     pagecolor="#ffffff"
     bordercolor="#666666"
     borderopacity="1.0"
     inkscape:pageopacity="0.0"
     inkscape:pageshadow="2"
     inkscape:zoom="0.55897048"
     inkscape:cx="159.67309"
     inkscape:cy="710.34805"
     inkscape:document-units="px"
     inkscape:current-layer="layer4"
     showgrid="false"
     inkscape:window-width="1218"
     inkscape:window-height="778"
     inkscape:window-x="-32000"
     inkscape:window-y="-32000"
     inkscape:window-maximized="1"
     showguides="true"
     inkscape:guide-bbox="true" />
  <metadata
     id="metadata7">
    <rdf:RDF>
      <cc:Work
         rdf:about="">
        <dc:format>image/svg+xml</dc:format>
        <dc:type
           rdf:resource="http://purl.org/dc/dcmitype/StillImage" />
        <dc:title />
      </cc:Work>
    </rdf:RDF>
  </metadata>
  <g
     inkscape:groupmode="layer"
     id="layer4"
     inkscape:label="Layer12"
     style="display:inline">
    <rect
       ry="15"
       rx="15"
       y="111.63632"
       x="145.20985"
       height="444.20782"
       width="444.20782"
       id="rect3918"
       style="fill:#ffffff;fill-opacity:1;stroke:none;display:inline" />
    <rect
       style="opacity:0.6017699;fill:url(#linearGradient3916);fill-opacity:1;stroke:none;display:inline"
       id="rect4447"
       width="444.20782"
       height="444.20782"
       x="165.20985"
       y="111.63632"
       rx="15"
       ry="15" />
  </g>
  <g
     inkscape:groupmode="layer"
     id="layer2"
     inkscape:label="Layer"
     style="display:inline">
    <path
       style="fill:#f9f9f9;stroke:#000000;stroke-width:5.57104158;stroke-linecap:butt;stroke-linejoin:miter;stroke-miterlimit:4;stroke-opacity:1;stroke-dasharray:none;display:inline"
       d="m 287.73833,243.39053 c -34.11651,5.11708 -85.45653,-19.69553 -93.79336,-68.46913 -3.97606,-31.07319 -0.47186,-85.062075 69.40708,-95.669241 26.31414,-2.311715 60.84376,0.6665 96.60716,40.331151 44.58787,-24.757937 132.67275,-12.17113 136.00037,60.96568 -2.52899,80.0242 -93.8438,78.41711 -105.04856,75.97262 z"
       id="path4141"
       inkscape:connector-curvature="0"
       sodipodi:nodetypes="ccccccc" />
    <path
       style="fill:#e6e6e6;stroke:#000000;stroke-width:5.57104158;stroke-linecap:butt;stroke-linejoin:miter;stroke-miterlimit:4;stroke-opacity:1;stroke-dasharray:none"
       d="m 280.73716,210.26459 c 20.34495,67.07867 11.81221,101.48032 7.9391,81.8985 l 96.95637,34.07408 c 7.60806,-32.57291 17.48726,-55.94038 15.54281,-111.92257 -35.35266,29.02469 -94.88173,22.0293 -120.43828,-4.05001 z"
       id="path4139"
       inkscape:connector-curvature="0"
       sodipodi:nodetypes="ccccc" />
    <path
       style="fill:#66a4ec;fill-opacity:1;stroke:#000000;stroke-width:5.57104158;stroke-linecap:butt;stroke-linejoin:miter;stroke-miterlimit:4;stroke-opacity:1;stroke-dasharray:none"
       d="m 413.42142,290.28722 c 15.00475,-6.52946 13.40751,-35.4177 8.44141,-69.40708 135.48385,63.4229 109.09234,229.72972 94.73129,251.3662 z"
       id="path3041"
       inkscape:connector-curvature="0"
       sodipodi:nodetypes="cccc" />
    <path
       style="fill:#ffd540;fill-opacity:1;stroke:#000000;stroke-width:5.57104158;stroke-linecap:butt;stroke-linejoin:miter;stroke-miterlimit:4;stroke-opacity:1;stroke-dasharray:none"
       d="m 342.25,263.59375 c -15.16914,-7.9e-4 -30.59731,2.19487 -45.96875,6.65625 -73.42065,28.60267 -71.81432,108.75741 -61.09375,139.9375 30.82815,29.44887 71.43148,42.58719 115.3125,50.28125 0.0247,0.0405 0.0376,0.0833 0.0625,0.125 21.9169,36.67764 27.45607,83.95062 13.71875,126.625 l 135.28125,0 c 4.81928,-9.5767 9.03441,-19.81398 12.5,-30.78125 L 515.09375,446 C 498.48485,327.72903 424.16338,263.59802 342.25,263.59375 z m 5.78125,194.375 c 0.36468,-0.0172 1.31641,0.64332 2.4375,2.46875 -2.40729,-1.25766 -2.91717,-2.44609 -2.4375,-2.46875 z"
       id="path4127"
       inkscape:connector-curvature="0" />
    <path
       style="fill:#66a4ec;fill-opacity:1;stroke:#000000;stroke-width:5.57104158;stroke-linecap:butt;stroke-linejoin:miter;stroke-miterlimit:4;stroke-opacity:1;stroke-dasharray:none"
       d="m 235.20457,410.19069 c 53.49575,41.72754 128.64445,13.19832 184.08478,-26.86038 -8.35568,60.529 -124.73391,130.7729 -161.86692,65.6587 -14.73551,-6.08599 -26.45156,-19.23244 -22.21786,-38.79832 z"
       id="path4121"
       inkscape:connector-curvature="0"
       sodipodi:nodetypes="cccc" />
    <path
       style="fill:none;stroke:#000000;stroke-width:5.57104158;stroke-linecap:butt;stroke-linejoin:miter;stroke-miterlimit:4;stroke-opacity:1;stroke-dasharray:none"
       d="m 257.44314,448.99938 c 27.15526,10.91209 64.94942,5.70514 98.32007,-10.21555 26.48615,-12.6362 50.1857,-32.02158 63.56759,-55.45352"
       id="path4123"
       inkscape:connector-curvature="0"
       sodipodi:nodetypes="csc" />
    <path
       style="fill:#66a4ec;fill-opacity:1;stroke:#000000;stroke-width:5.57104158;stroke-linecap:butt;stroke-linejoin:miter;stroke-miterlimit:4;stroke-opacity:1;stroke-dasharray:none"
       d="m 487.22787,474.52295 c 39.49148,-12.58518 60.95076,-14.41767 74.94377,14.75663 l -57.86588,24.04169 c -3.63578,-8.70802 -5.00671,-3.45219 -17.07789,-38.79832 z"
       id="path4151"
       inkscape:connector-curvature="0"
       sodipodi:nodetypes="cccc" />
    <path
       style="fill:#cccccc;stroke:#000000;stroke-width:5.57104158;stroke-linecap:butt;stroke-linejoin:miter;stroke-miterlimit:4;stroke-opacity:1;stroke-dasharray:none"
       d="m 550.40625,332.03125 -52.75,19.875 c 15.30233,92.68231 11.64936,162.9554 1.09375,221 l 16.28125,0 c 1.40979,-10.26335 2.60069,-20.52586 3.4375,-30.53125 11.88244,-77.77897 4.4999,-127.04475 31.9375,-210.34375 z"
       id="path4137"
       inkscape:connector-curvature="0" />
    <path
       sodipodi:type="arc"
       style="fill:#1a1a1a;fill-opacity:1;stroke-width:6;stroke-miterlimit:4;stroke-dasharray:none"
       id="path3863"
       sodipodi:cx="295.9747"
       sodipodi:cy="395.25797"
       sodipodi:rx="17.172594"
       sodipodi:ry="38.890873"
       d="m 313.14729,395.25797 a 17.172594,38.890873 0 1 1 -34.34518,0 17.172594,38.890873 0 1 1 34.34518,0 z"
       transform="matrix(0.92850687,0,0,0.92850687,59.053559,-9.167488)" />
    <path
       sodipodi:type="arc"
       style="fill:#1a1a1a;fill-opacity:1;stroke-width:6.23354959000000000;stroke-miterlimit:4;stroke-dasharray:none;display:inline"
       id="path3863-5"
       sodipodi:cx="295.9747"
       sodipodi:cy="395.25797"
       sodipodi:rx="17.172594"
       sodipodi:ry="38.890873"
       d="m 313.14729,395.25797 a 17.172594,38.890873 0 1 1 -34.34518,0 17.172594,38.890873 0 1 1 34.34518,0 z"
       transform="matrix(0.86023431,0,0,0.92850687,24.716431,-10.493934)" />
  </g>
  <g
     inkscape:groupmode="layer"
     id="layer3"
     inkscape:label="Layer#1"
     style="display:inline">
    <path
       inkscape:connector-curvature="0"
       id="path3960"
       d="m 142.53125,69.59375 c -21.80863,0 -39.375,17.53512 -39.375,39.34375 l 0,449.59375 c 0,21.80863 17.56637,39.375 39.375,39.375 l 449.5625,0 c 21.80863,0 39.375,-17.56637 39.375,-39.375 l 0,-449.59375 c 0,-21.80863 -17.56637,-39.34375 -39.375,-39.34375 l -449.5625,0 z m 17.6875,42.03125 414.1875,0 c 8.31,0 15,6.69 15,15 l 0,414.21875 c 0,8.31 -6.69,15 -15,15 l -414.1875,0 c -8.31,0 -15,-6.69 -15,-15 l 0,-414.21875 c 0,-8.31 6.69,-15 15,-15 z"
       style="fill:#c4ccd4;fill-opacity:1;stroke:none" />
    <path
       style="fill:none;stroke:#041720;stroke-width:3.93657494;stroke-linejoin:round;stroke-miterlimit:4;stroke-opacity:1;stroke-dasharray:none;filter:url(#filter4568)"
       d="m 160.21875,111.625 414.1875,0 c 8.31,0 15,6.69 15,15 l 0,414.21875 c 0,8.31 -6.69,15 -15,15 l -414.1875,0 c -8.31,0 -15,-6.69 -15,-15 l 0,-414.21875 c 0,-8.31 6.69,-15 15,-15 z"
       id="path3978"
       inkscape:connector-curvature="0"
       sodipodi:nodetypes="sssssssss" />
    <path
       style="fill:#cccccc;fill-opacity:1;stroke:#000000;stroke-width:5.57104158;stroke-linecap:butt;stroke-linejoin:miter;stroke-miterlimit:4;stroke-opacity:1;stroke-dasharray:none;display:inline"
       d="m 622.72364,267.57177 c -15.61095,-65.39722 -149.9006,-71.41512 -148.13156,34.199 -0.51984,15.82152 11.79114,41.29652 23.19817,50.36561 34.30717,-10.64441 107.31973,-64.36222 124.93339,-84.56461 z"
       id="path4133"
       inkscape:connector-curvature="0"
       sodipodi:nodetypes="cccc" />
    <path
       style="fill:#999999;stroke:#000000;stroke-width:5.57104158;stroke-linecap:butt;stroke-linejoin:miter;stroke-miterlimit:4;stroke-opacity:1;stroke-dasharray:none;display:inline"
       d="m 497.67889,352.13638 c -24.95738,-38.2224 68.78829,-124.97365 125.13123,-83.21086 -5.11106,53.25693 -77.85046,93.78718 -125.13123,83.21086 z"
       id="path4135"
       inkscape:connector-curvature="0"
       sodipodi:nodetypes="ccc" />
    <path
       style="fill:#66a4ec;fill-opacity:1;stroke:#000000;stroke-width:5.57104158;stroke-linecap:butt;stroke-linejoin:miter;stroke-miterlimit:4;stroke-opacity:1;stroke-dasharray:none;display:inline"
       d="m 533.44556,466.13769 c 33.43832,2.92606 37.93046,35.20739 26.98482,59.9052 -10.94563,24.69781 -37.32904,41.81209 -48.00018,45.97328 -37.44788,-21.89164 -49.8695,-46.21736 -48.41501,-80.24953 26.3383,11.5292 56.88656,3.5943 68.97481,-17.9069"
       id="path4145"
       inkscape:connector-curvature="0"
       sodipodi:nodetypes="csccc" />
    <path
       sodipodi:nodetypes="cccc"
       inkscape:connector-curvature="0"
       id="path4022"
       d="m 193.94497,174.9214 c -3.97606,-31.07319 -0.47186,-85.062075 69.40708,-95.669241 26.31414,-2.311715 60.84376,0.6665 96.60716,40.331151 44.58787,-24.757937 132.67275,-12.17113 136.00037,60.96568"
       style="fill:#f9f9f9;stroke:#000000;stroke-width:5.5710001;stroke-linecap:butt;stroke-linejoin:miter;stroke-miterlimit:4;stroke-opacity:1;stroke-dasharray:none;display:inline" />
    <path
       inkscape:connector-curvature="0"
       id="path4454"
       d="m 142.53125,69.59375 c -21.80863,0 -39.375,17.53512 -39.375,39.34375 l 0,449.59375 c 0,21.80863 17.56637,39.375 39.375,39.375 l 449.5625,0 c 21.80863,0 39.375,-17.56637 39.375,-39.375 l 0,-449.59375 c 0,-21.80863 -17.56637,-39.34375 -39.375,-39.34375 z"
       style="fill:none;stroke:#01080b;stroke-width:3.93657494;stroke-linejoin:round;stroke-miterlimit:4;stroke-opacity:1;stroke-dasharray:none"
       sodipodi:nodetypes="sssssssss" />
    <path
       style="display:inline;fill:#66a4ec;fill-opacity:1;stroke:#000000;stroke-width:5.57104158000000020;stroke-linecap:butt;stroke-linejoin:miter;stroke-miterlimit:4;stroke-opacity:1;stroke-dasharray:none"
       d="m 374.2055,487.29721 c -29.97087,-3.42112 -62.62073,-1.75671 -97.82828,34.09717 6.93615,37.80678 26.5785,62.08227 63.57591,68.05946 8.38771,-21.76091 16.37378,-44.33765 36.96787,-50.40465 z"
       id="path4119"
       inkscape:connector-curvature="0"
       sodipodi:nodetypes="ccccc" />
    <path
       sodipodi:nodetypes="ccc"
       inkscape:connector-curvature="0"
       id="path3844"
       d="m 359.03125,477.1875 c 9.59189,22.11379 13.91503,46.8528 12.4375,71.5625 l 71.41154,-49.19759"
       style="fill:#ffd540;fill-opacity:1;stroke:none;display:inline" />
    <path
       style="fill:none;fill-opacity:1;stroke:#000000;stroke-width:5.57104158000000020;stroke-linecap:butt;stroke-linejoin:miter;stroke-miterlimit:4;stroke-opacity:1;stroke-dasharray:none;display:inline"
       d="m 359.03125,477.1875 c 9.59189,22.11379 13.91503,46.8528 12.4375,71.5625"
       id="path3835"
       inkscape:connector-curvature="0"
       sodipodi:nodetypes="cc" />
  </g>
</svg>
