<?xml version="1.0" encoding="UTF-8" standalone="no"?>
<!-- Created with Inkscape (http://www.inkscape.org/) -->

<svg
   xmlns:dc="http://purl.org/dc/elements/1.1/"
   xmlns:cc="http://creativecommons.org/ns#"
   xmlns:rdf="http://www.w3.org/1999/02/22-rdf-syntax-ns#"
   xmlns:svg="http://www.w3.org/2000/svg"
   xmlns="http://www.w3.org/2000/svg"
   xmlns:sodipodi="http://sodipodi.sourceforge.net/DTD/sodipodi-0.dtd"
   xmlns:inkscape="http://www.inkscape.org/namespaces/inkscape"
   width="400"
   height="200"
   id="svg2"
   version="1.1"
   inkscape:version="0.48.1 "
   sodipodi:docname="ICONES-ABAS.svg">
  <defs
     id="defs4" />
  <sodipodi:namedview
     id="base"
     pagecolor="#ffffff"
     bordercolor="#666666"
     borderopacity="1.0"
     inkscape:pageopacity="0.0"
     inkscape:pageshadow="2"
     inkscape:zoom="1.94"
     inkscape:cx="204.54467"
     inkscape:cy="84.977383"
     inkscape:document-units="px"
     inkscape:current-layer="layer1"
     showgrid="false"
     inkscape:window-width="1218"
     inkscape:window-height="778"
     inkscape:window-x="54"
     inkscape:window-y="-8"
     inkscape:window-maximized="1"
     width="400px" />
  <metadata
     id="metadata7">
    <rdf:RDF>
      <cc:Work
         rdf:about="">
        <dc:format>image/svg+xml</dc:format>
        <dc:type
           rdf:resource="http://purl.org/dc/dcmitype/StillImage" />
        <dc:title />
      </cc:Work>
    </rdf:RDF>
  </metadata>
  <g
     inkscape:label="Layer 1"
     inkscape:groupmode="layer"
     id="layer1"
     transform="translate(0,-852.36209)">
    <g
       id="g3033"
       transform="translate(-1.0309278,27.476694)">
      <g
         transform="translate(-319.64241,402.5229)"
         inkscape:export-ydpi="53.257469"
         inkscape:export-xdpi="53.257469"
         inkscape:export-filename="C:\Users\tkrempser\Desktop\EngSoft2\peixe_android\res\imgs\prefeitura.png"
         id="g3858">
        <rect
           style="fill:#666666;fill-opacity:1;fill-rule:evenodd;stroke:none"
           id="rect3819"
           width="17.167871"
           height="16.343868"
           x="380.06857"
           y="477.83945"
           inkscape:export-filename="C:\Users\tkrempser\Desktop\EngSoft2\peixe_android\res\imgs\prefeitura.png"
           inkscape:export-xdpi="52.585712"
           inkscape:export-ydpi="52.585712" />
        <path
           style="fill:#666666;fill-opacity:1;stroke:#808080;stroke-width:2.4000001;stroke-linecap:butt;stroke-linejoin:miter;stroke-miterlimit:4;stroke-opacity:1;stroke-dasharray:none"
           d="m 375.305,475.82147 -8.79361,0.0134 0.22994,14.36147 -0.15329,-14.34796 -8.07367,-0.0289 0,16.72747 2.04397,2.45276 12.26379,0 2.65716,-2.24836 2.75935,2.45276 12.34864,0"
           id="path3047"
           inkscape:connector-curvature="0"
           sodipodi:nodetypes="ccccccccccc"
           inkscape:export-filename="C:\Users\tkrempser\Desktop\EngSoft2\peixe_android\res\imgs\prefeitura.png"
           inkscape:export-xdpi="52.585712"
           inkscape:export-ydpi="52.585712" />
        <path
           style="fill:#666666;fill-opacity:1;stroke:#808080;stroke-width:2.4000001;stroke-linecap:butt;stroke-linejoin:miter;stroke-miterlimit:4;stroke-opacity:1;stroke-dasharray:none"
           d="m 393.286,495.37458 8.15166,-0.10219 0.20439,-13.40975 0,6.49535 7.86928,0 0,-9.84778 -2.35057,-2.6191 -11.6506,0 -2.88024,2.09271 m 1.03792,0.0995 -2.961,-2.29692 -12.57039,0 -1.83958,1.88575 0.1022,5.86676 7.15389,6.57297"
           id="path3817"
           inkscape:connector-curvature="0"
           sodipodi:nodetypes="ccccccccccccccc"
           inkscape:export-filename="C:\Users\tkrempser\Desktop\EngSoft2\peixe_android\res\imgs\prefeitura.png"
           inkscape:export-xdpi="52.585712"
           inkscape:export-ydpi="52.585712" />
        <path
           style="fill:#666666;fill-opacity:1;stroke:#808080;stroke-width:2.4000001;stroke-linecap:butt;stroke-linejoin:miter;stroke-miterlimit:4;stroke-opacity:1;stroke-dasharray:none"
           d="m 385.29032,481.35616 7.10279,6.64289 -0.1022,5.74316 -2.17818,1.49497"
           id="path3832"
           inkscape:connector-curvature="0"
           sodipodi:nodetypes="cccc"
           inkscape:export-filename="C:\Users\tkrempser\Desktop\EngSoft2\peixe_android\res\imgs\prefeitura.png"
           inkscape:export-xdpi="52.585712"
           inkscape:export-ydpi="52.585712" />
      </g>
    </g>
    <g
       id="g3026"
       transform="translate(-1.0309278,24.742268)">
      <path
         transform="matrix(1.0320664,0,-0.10947554,1.0415942,-297.3297,376.54098)"
         inkscape:export-ydpi="54.43158"
         inkscape:export-xdpi="54.43158"
         inkscape:export-filename="C:\Users\tkrempser\Desktop\EngSoft2\peixe_android\res\imgs\central.png"
         sodipodi:open="true"
         sodipodi:end="6.0879039"
         sodipodi:start="0"
         d="m 685.03684,507.69577 c 0,6.0566 -9.95061,10.96644 -22.22532,10.96644 -12.2747,0 -22.22531,-4.90984 -22.22531,-10.96644 0,-6.0566 9.95061,-10.96644 22.22531,-10.96644 10.61206,0 19.74369,3.7018 21.80288,8.83848"
         sodipodi:ry="10.966438"
         sodipodi:rx="22.225315"
         sodipodi:cy="507.69577"
         sodipodi:cx="662.81152"
         id="path3806"
         style="fill:#808080;stroke:#ffffff;stroke-opacity:0"
         sodipodi:type="arc" />
      <path
         sodipodi:type="arc"
         style="fill:#666666;fill-opacity:1;stroke:#ffffff;stroke-opacity:0"
         id="path4385"
         sodipodi:cx="662.81152"
         sodipodi:cy="507.69577"
         sodipodi:rx="22.225315"
         sodipodi:ry="10.966438"
         d="m 685.03684,507.69577 c 0,6.0566 -9.95061,10.96644 -22.22532,10.96644 -12.2747,0 -22.22531,-4.90984 -22.22531,-10.96644 0,-6.0566 9.95061,-10.96644 22.22531,-10.96644 10.61206,0 19.74369,3.7018 21.80288,8.83848"
         sodipodi:start="0"
         sodipodi:end="6.0879039"
         sodipodi:open="true"
         transform="matrix(0.81324102,0,-0.08626383,0.69983037,-164.12832,549.75797)"
         inkscape:export-filename="C:\Users\tkrempser\Desktop\EngSoft2\peixe_android\res\imgs\central.png"
         inkscape:export-xdpi="54.43158"
         inkscape:export-ydpi="54.43158" />
      <rect
         transform="matrix(0.99452194,-0.10452806,0,1,0,0)"
         inkscape:export-ydpi="54.43158"
         inkscape:export-xdpi="54.43158"
         inkscape:export-filename="C:\Users\tkrempser\Desktop\EngSoft2\peixe_android\res\imgs\central.png"
         y="900.05743"
         x="322.19342"
         height="38.067829"
         width="19.119133"
         id="rect2996"
         style="fill:#666666;fill-rule:evenodd;stroke:none" />
      <rect
         transform="matrix(0.99452194,-0.10452806,0,1,0,0)"
         inkscape:export-ydpi="54.43158"
         inkscape:export-xdpi="54.43158"
         inkscape:export-filename="C:\Users\tkrempser\Desktop\EngSoft2\peixe_android\res\imgs\central.png"
         y="902.55316"
         x="324.6145"
         height="38.067829"
         width="19.119133"
         id="rect2996-7"
         style="fill:#808080;fill-opacity:1;fill-rule:evenodd;stroke:none" />
      <path
         inkscape:export-filename="C:\Users\tkrempser\Desktop\EngSoft2\peixe_android\res\imgs\central.png"
         inkscape:export-ydpi="54.43158"
         inkscape:export-xdpi="54.43158"
         transform="matrix(0.82386429,-0.08659129,0,0.82386429,-177.88574,541.04289)"
         sodipodi:open="true"
         sodipodi:end="6.0879039"
         sodipodi:start="0"
         d="m 625.81809,472.31073 c 0,3.39169 -2.74952,6.14121 -6.14121,6.14121 -3.39169,0 -6.14121,-2.74952 -6.14121,-6.14121 0,-3.39169 2.74952,-6.14121 6.14121,-6.14121 2.93228,0 5.45549,2.07301 6.02448,4.94955"
         sodipodi:ry="6.1412053"
         sodipodi:rx="6.1412053"
         sodipodi:cy="472.31073"
         sodipodi:cx="619.67688"
         id="path3812"
         style="fill:#666666;stroke:#ffffff;stroke-opacity:0"
         sodipodi:type="arc" />
    </g>
    <g
       id="g3022"
       transform="translate(-1.0309278,24.602074)">
      <path
         inkscape:export-ydpi="63.522621"
         inkscape:export-xdpi="63.522621"
         inkscape:export-filename="C:\Users\tkrempser\Desktop\EngSoft2\peixe_android\res\imgs\quimica.png"
         inkscape:connector-curvature="0"
         id="path4281"
         d="m 257.96153,867.88634 0,3.75277 2.90537,0 0,13.61895 -14.04264,20.57973 0,6.05286 3.63171,2.17903 15.49534,0 15.49533,0 3.63172,-2.17903 0,-6.05286 -14.04265,-20.57973 0,-13.61895 2.90538,0 0,-3.75277 -7.98978,0.0604 -7.98978,-0.0604 z"
         style="fill:#808080;fill-opacity:1;stroke:none" />
      <path
         inkscape:export-ydpi="63.522621"
         inkscape:export-xdpi="63.522621"
         inkscape:export-filename="C:\Users\tkrempser\Desktop\EngSoft2\peixe_android\res\imgs\quimica.png"
         sodipodi:nodetypes="ccccccccccc"
         inkscape:connector-curvature="0"
         id="path4281-8"
         d="m 256.90979,897.39507 -5.46163,7.71286 0,4.40735 2.75376,1.58666 11.74939,0 11.74941,0 2.75373,-1.58666 0,-4.40735 -5.46162,-7.71286 -9.5464,0 z"
         style="fill:#666666;fill-opacity:1;stroke:none" />
    </g>
    <g
       id="g3014"
       transform="translate(-1.0309278,26.930754)">
      <g
         style="fill:#666666"
         inkscape:export-ydpi="64.82811"
         inkscape:export-xdpi="64.82811"
         inkscape:export-filename="C:\Users\tkrempser\Desktop\EngSoft2\peixe_android\res\imgs\professores.png"
         transform="matrix(0.92521205,0,0,0.93436638,-274.72757,435.83147)"
         id="g4546">
        <path
           sodipodi:type="arc"
           style="fill:#666666;fill-opacity:1;stroke:none"
           id="path4432"
           sodipodi:cx="460.5033"
           sodipodi:cy="495.33881"
           sodipodi:rx="17.67767"
           sodipodi:ry="17.67767"
           d="m 478.18097,495.33881 c 0,9.7631 -7.91457,17.67767 -17.67767,17.67767 -9.76311,0 -17.67767,-7.91457 -17.67767,-17.67767 0,-9.76311 7.91456,-17.67767 17.67767,-17.67767 8.44066,0 15.70382,5.96721 17.34167,14.24745"
           sodipodi:start="0"
           sodipodi:end="6.0879039"
           sodipodi:open="true"
           transform="matrix(0.80196763,0,0,0.55073043,148.1535,225.8647)"
           inkscape:export-filename="C:\Users\aluno\Desktop\professores.png"
           inkscape:export-xdpi="61.23774"
           inkscape:export-ydpi="61.23774" />
        <rect
           style="fill:#666666;fill-opacity:1;stroke:none"
           id="rect4434"
           width="28.350643"
           height="23.145622"
           x="503.27469"
           y="476.07785"
           inkscape:export-filename="C:\Users\aluno\Desktop\professores.png"
           inkscape:export-xdpi="61.23774"
           inkscape:export-ydpi="61.23774" />
      </g>
      <rect
         inkscape:export-ydpi="64.82811"
         inkscape:export-xdpi="64.82811"
         inkscape:export-filename="C:\Users\tkrempser\Desktop\EngSoft2\peixe_android\res\imgs\professores.png"
         y="884.0368"
         x="227.20792"
         height="21.548916"
         width="1.4176918"
         id="rect4462"
         style="fill:#666666;fill-opacity:1;stroke:none" />
      <rect
         inkscape:export-ydpi="64.82811"
         inkscape:export-xdpi="64.82811"
         inkscape:export-filename="C:\Users\tkrempser\Desktop\EngSoft2\peixe_android\res\imgs\professores.png"
         transform="matrix(0.82764884,-0.56124629,0.89809939,0.43979255,0,0)"
         y="956.56805"
         x="-825.61322"
         height="36.182083"
         width="31.407104"
         id="rect4381"
         style="fill:#808080;fill-opacity:1;stroke:none" />
      <path
         inkscape:export-ydpi="64.82811"
         inkscape:export-xdpi="64.82811"
         inkscape:export-filename="C:\Users\tkrempser\Desktop\EngSoft2\peixe_android\res\imgs\professores.png"
         sodipodi:nodetypes="cccc"
         inkscape:connector-curvature="0"
         id="path4464"
         d="m 227.89352,904.28286 -2.65652,4.51107 c 1.44693,1.45714 3.04523,2.1674 5.25579,0 z"
         style="fill:#666666;fill-opacity:1;stroke:none" />
    </g>
    <g
       id="g3008"
       transform="translate(-1.0309278,28.785024)">
      <path
         inkscape:export-ydpi="66.322769"
         inkscape:export-xdpi="66.322769"
         inkscape:export-filename="C:\Users\tkrempser\Desktop\EngSoft2\peixe_android\res\imgs\fisica.png"
         sodipodi:nodetypes="ccccc"
         inkscape:connector-curvature="0"
         id="path4494"
         d="m 131.74841,879.30887 c -3.0731,1.67162 -3.03364,3.82209 -3.36827,5.91501 l -16.18412,0.1643 c 0.71602,-7.96174 3.40638,-15.13374 11.74786,-20.04529 z"
         style="fill:#808080;fill-opacity:1;stroke:none" />
      <path
         inkscape:export-ydpi="66.322769"
         inkscape:export-xdpi="66.322769"
         inkscape:export-filename="C:\Users\tkrempser\Desktop\EngSoft2\peixe_android\res\imgs\fisica.png"
         sodipodi:nodetypes="ccccc"
         inkscape:connector-curvature="0"
         id="path4494-7"
         d="m 142.34145,885.2098 c 0.14196,-3.49543 -1.72411,-4.56495 -3.34884,-5.92603 l 8.16286,-13.97571 c 6.46646,4.69967 11.24205,10.68878 11.17789,20.36862 z"
         style="fill:#808080;fill-opacity:1;stroke:none" />
      <path
         inkscape:export-ydpi="66.322769"
         inkscape:export-xdpi="66.322769"
         inkscape:export-filename="C:\Users\tkrempser\Desktop\EngSoft2\peixe_android\res\imgs\fisica.png"
         sodipodi:nodetypes="ccccc"
         inkscape:connector-curvature="0"
         id="path4494-7-6"
         d="m 132.20223,891.39274 c 2.97864,1.83465 4.82464,0.73088 6.80678,-0.0197 l 8.19183,13.95875 c -7.2633,3.33865 -14.82341,4.57168 -23.2331,-0.22214 z"
         style="fill:#808080;fill-opacity:1;stroke:none" />
      <path
         inkscape:export-ydpi="66.322769"
         inkscape:export-xdpi="66.322769"
         inkscape:export-filename="C:\Users\tkrempser\Desktop\EngSoft2\peixe_android\res\imgs\fisica.png"
         transform="matrix(0.48178095,0,0,0.48604454,-118.444,559.17892)"
         sodipodi:open="true"
         sodipodi:end="6.0879039"
         sodipodi:start="0"
         d="m 536.87084,671.32001 c 0,5.32089 -4.31344,9.63433 -9.63433,9.63433 -5.32089,0 -9.63433,-4.31344 -9.63433,-9.63433 0,-5.3209 4.31344,-9.63433 9.63433,-9.63433 4.60016,0 8.55859,3.25213 9.45121,7.76486"
         sodipodi:ry="9.6343298"
         sodipodi:rx="9.6343298"
         sodipodi:cy="671.32001"
         sodipodi:cx="527.23651"
         id="path4532"
         style="fill:#666666;fill-opacity:1;stroke:none"
         sodipodi:type="arc" />
    </g>
    <g
       id="g3040"
       transform="translate(104.12371,50.103791)">
      <path
         inkscape:export-ydpi="76.268219"
         inkscape:export-xdpi="76.268219"
         inkscape:export-filename="C:\Users\tkrempser\Desktop\EngSoft2\peixe_android\res\imgs\like1.png"
         sodipodi:nodetypes="ccccc"
         inkscape:connector-curvature="0"
         id="path3875"
         d="m 62.113399,942.94728 8.893944,0.14581 0,18.66272 -8.893944,0 z"
         style="fill:#666666;fill-opacity:1;stroke:none" />
      <path
         inkscape:export-ydpi="76.268219"
         inkscape:export-xdpi="76.268219"
         inkscape:export-filename="C:\Users\tkrempser\Desktop\EngSoft2\peixe_android\res\imgs\like1.png"
         sodipodi:nodetypes="ccssscccccccc"
         inkscape:connector-curvature="0"
         id="path3877"
         d="m 72.287687,960.7505 c 4.68923,0.99956 14.874143,3.47031 21.603261,1.89192 0.908071,-1.43296 1.840378,-2.92169 2.525547,-4.49397 0.685169,-1.57229 0.821053,-3.32017 1.49639,-4.99542 1.0303,-2.55578 0.849701,-3.98384 0.540262,-5.66387 -0.365558,-1.98475 -0.448328,-4.17512 -0.966323,-6.49938 l -12.269079,-0.26897 c 1.079488,-1.72861 2.076948,-2.88301 3.496696,-6.99341 0.58153,-4.18556 -0.731281,-6.09792 -1.882829,-8.20379 -0.848717,-0.24939 -0.982061,-0.72718 -3.027295,0.13449 -0.33979,3.07977 0.286675,5.46937 -4.841588,11.96947 -2.349311,1.59017 -5.176643,3.23953 -6.56746,6.27681 z"
         style="fill:#808080;fill-opacity:1;stroke:none" />
    </g>
    <g
       id="g3044"
       transform="translate(104.12371,46.391753)">
      <path
         inkscape:export-ydpi="76.268211"
         inkscape:export-xdpi="76.268211"
         inkscape:export-filename="C:\Users\tkrempser\Desktop\EngSoft2\peixe_android\res\imgs\dislike1.png"
         sodipodi:nodetypes="ccccc"
         inkscape:connector-curvature="0"
         id="path3875-4"
         d="m 163.1964,949.08574 -8.89394,-0.14581 0,-18.66272 8.89394,0 z"
         style="fill:#666666;fill-opacity:1;stroke:none" />
      <path
         inkscape:export-ydpi="76.268211"
         inkscape:export-xdpi="76.268211"
         inkscape:export-filename="C:\Users\tkrempser\Desktop\EngSoft2\peixe_android\res\imgs\dislike1.png"
         sodipodi:nodetypes="ccssscccccccc"
         inkscape:connector-curvature="0"
         id="path3877-8"
         d="m 153.02211,931.28252 c -4.68923,-0.99956 -14.87414,-3.47031 -21.60326,-1.89192 -0.90807,1.43296 -1.84038,2.92169 -2.52555,4.49397 -0.68516,1.57229 -0.82105,3.32017 -1.49639,4.99542 -1.0303,2.55578 -0.8497,3.98384 -0.54026,5.66387 0.36556,1.98475 0.44833,4.17512 0.96632,6.49938 l 12.26908,0.26897 c -1.07948,1.72861 -2.07694,2.88301 -3.49669,6.99341 -0.58153,4.18556 0.73128,6.09792 1.88283,8.20379 0.84871,0.24939 0.98206,0.72718 3.02729,-0.13449 0.33979,-3.07977 -0.28667,-5.46937 4.84159,-11.96947 2.34931,-1.59017 5.17664,-3.23953 6.56746,-6.27681 z"
         style="fill:#808080;fill-opacity:1;stroke:none" />
    </g>
  </g>
</svg>
